<svg width="25" height="25" viewBox="0 0 25 25" fill="none" xmlns="http://www.w3.org/2000/svg">
<rect x="25" y="25" width="25" height="25" rx="4" transform="rotate(180 25 25)" fill="#7FCAF6"/>
<path d="M14.4169 14.8322C18.535 14.8182 20 12.7847 20 11.0417C20 10.064 19.2594 9.24675 18.275 9.04783C18.4694 8.53333 18.6163 8.03808 18.7137 7.59592C18.8263 7.08492 18.6863 6.55875 18.3306 6.15158C17.9688 5.73742 17.4325 5.5 16.8606 5.5H8.13937C7.56687 5.5 7.03125 5.73742 6.66937 6.15158C6.31375 6.55817 6.17375 7.08492 6.28625 7.59592C6.38375 8.03867 6.53062 8.53333 6.725 9.04783C5.74062 9.24675 5 10.064 5 11.0417C5 12.7847 6.465 14.8176 10.5831 14.8322C10.6019 14.9552 10.625 15.0777 10.625 15.2049V17.1667C10.625 18.2318 9.665 18.3287 9.375 18.3333H8.125V19.5H16.875V18.3333H15.63C15.335 18.3287 14.375 18.2318 14.375 17.1667V15.2049C14.375 15.0777 14.3981 14.9552 14.4169 14.8322ZM17.8125 10.1667C18.3294 10.1667 18.75 10.5592 18.75 11.0417C18.75 12.2363 17.7306 13.5063 14.9225 13.6521C15.035 13.5162 15.1613 13.3925 15.3031 13.2869C16.3769 12.486 17.1931 11.3322 17.7775 10.1667H17.8125ZM6.25 11.0417C6.25 10.5592 6.67062 10.1667 7.1875 10.1667H7.22312C7.8075 11.3322 8.62312 12.486 9.69688 13.2869C9.83875 13.3925 9.96562 13.5162 10.0775 13.6521C7.26937 13.5063 6.25 12.2363 6.25 11.0417ZM13.125 15.2049V17.1667C13.125 17.6368 13.2444 18.0177 13.4294 18.3333H11.5712C11.7556 18.0177 11.8756 17.6368 11.8756 17.1667V15.2049C11.8756 14.0697 11.3669 13.0384 10.4781 12.3752C8.93875 11.2266 7.87875 9.02975 7.51188 7.36083C7.46187 7.13333 7.57063 6.96767 7.63875 6.88833C7.7625 6.74717 7.945 6.66608 8.14062 6.66608H16.8612C17.0563 6.66608 17.2388 6.74717 17.3625 6.88833C17.4313 6.96767 17.54 7.13392 17.49 7.36083C17.1231 9.02858 16.0638 11.226 14.5238 12.3752C13.6356 13.0378 13.1263 14.0686 13.1263 15.2049H13.125ZM12.8275 7.83333L13.235 9.00292H14.5531L14.7406 9.53842L13.6744 10.2617L14.0819 11.4319L13.5938 11.7627L12.5281 11.0417L11.4594 11.7632L10.9713 11.4325L11.3788 10.2623L10.3125 9.539L10.5 9.0035H11.8169L12.2244 7.83683L12.8275 7.83333Z" fill="white"/>
</svg>
