<svg width="25" height="25" viewBox="0 0 25 25" fill="none" xmlns="http://www.w3.org/2000/svg">
<rect x="25" y="25" width="25" height="25" rx="4" transform="rotate(180 25 25)" fill="#D6D6D6"/>
<path d="M11.7929 18.9571C12.1834 19.3476 12.8166 19.3476 13.2071 18.9571L19.5711 12.5931C19.9616 12.2026 19.9616 11.5695 19.5711 11.1789C19.1805 10.7884 18.5474 10.7884 18.1569 11.1789L12.5 16.8358L6.84315 11.1789C6.45262 10.7884 5.81946 10.7884 5.42893 11.1789C5.03841 11.5695 5.03841 12.2026 5.42893 12.5931L11.7929 18.9571ZM13.5 18.25L13.5 6.75L11.5 6.75L11.5 18.25L13.5 18.25Z" fill="white"/>
</svg>
