<svg width="25" height="25" viewBox="0 0 25 25" fill="none" xmlns="http://www.w3.org/2000/svg">
<rect x="25" y="25" width="25" height="25" rx="4" transform="rotate(180 25 25)" fill="#FF9E35"/>
<path d="M18.5142 10.8333H18.4422C18.5291 10.5669 18.5487 10.2854 18.4997 10.0108C18.4506 9.7361 18.3342 9.47571 18.1595 9.24989C17.9848 9.02406 17.7565 8.8389 17.4924 8.70883C17.2284 8.57875 16.9356 8.50729 16.6371 8.5H7.87713C4.46638 8.717 6.62571 13.5464 7.50859 14.8653C7.90451 15.4245 8.44435 15.8823 9.07883 16.1969C9.7133 16.5116 10.4222 16.6731 11.1408 16.6667H13.3727C14.0798 16.6727 14.7775 16.5162 15.4041 16.2109C16.0308 15.9057 16.5671 15.4612 16.9656 14.9167H18.5142C21.5264 14.8624 22.1177 10.7295 18.5142 10.8333ZM13.3727 15.5H11.1408C10.6304 15.5064 10.1263 15.3934 9.67477 15.1714C9.22322 14.9493 8.83859 14.6253 8.55603 14.2289C8.21564 13.925 6.3091 9.66667 7.87713 9.66667H16.6371C16.7232 9.66641 16.8083 9.68317 16.887 9.71585C16.9656 9.74853 17.0359 9.79638 17.0932 9.85625C17.1542 9.91889 17.2003 9.99286 17.2284 10.0733C17.2566 10.1537 17.2662 10.2388 17.2565 10.3229C16.9043 12.8073 16.2416 15.3897 13.3727 15.5ZM18.5142 13.75H17.6307C17.8879 13.1853 18.0878 12.5994 18.2276 12C18.9841 11.9527 19.8207 12.126 19.7656 12.6667C19.7453 12.9623 19.6042 13.2393 19.3714 13.4408C19.1386 13.6424 18.8319 13.753 18.5142 13.75ZM11.647 6.75V5.58333C11.647 5.42862 11.713 5.28025 11.8303 5.17085C11.9476 5.06146 12.1068 5 12.2727 5C12.4387 5 12.5978 5.06146 12.7152 5.17085C12.8325 5.28025 12.8985 5.42862 12.8985 5.58333V6.75C12.8985 6.90471 12.8325 7.05308 12.7152 7.16248C12.5978 7.27188 12.4387 7.33333 12.2727 7.33333C12.1068 7.33333 11.9476 7.27188 11.8303 7.16248C11.713 7.05308 11.647 6.90471 11.647 6.75ZM14.1499 6.75V5.58333C14.1499 5.42862 14.2158 5.28025 14.3331 5.17085C14.4505 5.06146 14.6096 5 14.7756 5C14.9415 5 15.1007 5.06146 15.218 5.17085C15.3354 5.28025 15.4013 5.42862 15.4013 5.58333V6.75C15.4013 6.90471 15.3354 7.05308 15.218 7.16248C15.1007 7.27188 14.9415 7.33333 14.7756 7.33333C14.6096 7.33333 14.4505 7.27188 14.3331 7.16248C14.2158 7.05308 14.1499 6.90471 14.1499 6.75ZM9.14419 6.75V5.58333C9.14419 5.42862 9.21012 5.28025 9.32746 5.17085C9.4448 5.06146 9.60396 5 9.7699 5C9.93585 5 10.095 5.06146 10.2123 5.17085C10.3297 5.28025 10.3956 5.42862 10.3956 5.58333V6.75C10.3956 6.90471 10.3297 7.05308 10.2123 7.16248C10.095 7.27188 9.93585 7.33333 9.7699 7.33333C9.60396 7.33333 9.4448 7.27188 9.32746 7.16248C9.21012 7.05308 9.14419 6.90471 9.14419 6.75ZM18.5142 18.4167C18.5142 18.5714 18.4483 18.7197 18.3309 18.8291C18.2136 18.9385 18.0544 19 17.8885 19H6.62571C6.45976 19 6.30061 18.9385 6.18327 18.8291C6.06592 18.7197 6 18.5714 6 18.4167C6 18.262 6.06592 18.1136 6.18327 18.0042C6.30061 17.8948 6.45976 17.8333 6.62571 17.8333H17.8885C18.0544 17.8333 18.2136 17.8948 18.3309 18.0042C18.4483 18.1136 18.5142 18.262 18.5142 18.4167Z" fill="white"/>
</svg>
